<?xml version="1.0" encoding="utf-8"?><!-- 
****************************
This is an adaption of the work by Simon East/Rob Meredith/JockeyColours.com under the Creative Commons Attribution-ShareAlike 3.0 Unported license.
Please ensure this attribution remains with the image.
****************************-->
<!DOCTYPE svg PUBLIC "-//W3C//DTD SVG 1.1//EN" "http://www.w3.org/Graphics/SVG/1.1/DTD/svg11.dtd" [
	<!ENTITY ns_extend "http://ns.adobe.com/Extensibility/1.0/">
	<!ENTITY ns_ai "http://ns.adobe.com/AdobeIllustrator/10.0/">
	<!ENTITY ns_graphs "http://ns.adobe.com/Graphs/1.0/">
	<!ENTITY ns_vars "http://ns.adobe.com/Variables/1.0/">
	<!ENTITY ns_imrep "http://ns.adobe.com/ImageReplacement/1.0/">
	<!ENTITY ns_sfw "http://ns.adobe.com/SaveForWeb/1.0/">
	<!ENTITY ns_custom "http://ns.adobe.com/GenericCustomNamespace/1.0/">
	<!ENTITY ns_adobe_xpath "http://ns.adobe.com/XPath/1.0/">
]>
<svg version="1.1" id="Silks" xmlns:x="&ns_extend;" xmlns:i="&ns_ai;" xmlns:graph="&ns_graphs;"
	 xmlns="http://www.w3.org/2000/svg" xmlns:xlink="http://www.w3.org/1999/xlink" x="0px" y="0px" width="60px" height="60px"
	 viewBox="0 0 50 50" enable-background="new 0 0 50 50" xml:space="preserve">
<metadata>
	<sfw  xmlns="&ns_sfw;">
		<slices></slices>
		<sliceSourceBounds  y="0.04" x="-0.385" width="52.172" height="49.854" bottomLeftOrigin="true"></sliceSourceBounds>
	</sfw>
</metadata><g id="body_01">
	<path fill="#800000" d="M32.315,46.586l0.074,1.677l6.156,0.872l2.565-19.243c-0.991-8.17-1.68-11.721-6.431-18.534l-8.99-3.312
		c-0.012-2.547-2.759-3.933-4.964-3.933c-2.203,0-4.952,1.386-4.961,3.933l-8.99,3.312c-4.75,6.812-5.437,10.363-6.429,18.534
		l2.565,19.245l6.158-0.872l0.074-1.679c3.684,1.437,7.663,1.928,11.584,1.928C24.642,48.514,28.647,48.019,32.315,46.586
		L32.315,46.586z"/>
</g><g id="body_19" display="inline">
	<path display="inline" fill="#fff353" d="M28.973,34.054h-6.095v-8.792h3.247v-4.295h-3.247V17.57h-4.296v3.396h-3.247v4.295h3.247
		v8.792h-6.094v4.297h6.094v3.297h4.296v-3.297h6.095V34.054z"/>
</g><g id="sleeve_01">
	<path fill="#800000" d="M34.685,11.353l-3.595,7.881l1.302,29.026l6.156,0.87l2.567-19.243
		C40.123,21.717,39.436,18.166,34.685,11.353L34.685,11.353z M6.78,11.353l3.594,7.881L9.072,48.261l-6.158,0.87L0.348,29.888
		C1.34,21.717,2.026,18.166,6.78,11.353L6.78,11.353z"/>
</g><g id="sleeve_04" display="inline">
	<polygon display="inline" fill="#fff353" points="35.059,31.412 32.566,16.093 31.113,19.235 33.359,31.913 33.561,48.296 
		34.739,48.591 35.158,48.65 	"/>
	<path display="inline" fill="#fff353" d="M39.109,43.85l0.168-13.295l-4.059-18.417c-0.176-0.26-0.347-0.517-0.535-0.786
		l-0.792,1.736l-0.329,0.838l3.793,16.585l0.086,18.462l1.016,0.144L39.109,43.85z"/>
	<path display="inline" fill="#fff353" d="M6.497,11.766c-0.174,0.253-0.35,0.508-0.513,0.753L2.073,30.357L2.241,43.65l0.66,5.324
		l1.008-0.168l0.085-18.494l3.797-16.583l-0.41-1.054L6.8,11.401L6.497,11.766z"/>
	<polygon display="inline" fill="#fff353" points="8.79,16.025 6.292,31.211 6.192,48.495 7.756,48.359 7.988,31.71 10.236,19.033 	
		"/>
</g><g id="cap_01">
	<path fill="#800000" d="M49.712,10.988c0,3.714-2.862,6.74-6.37,6.74c-3.512,0-6.373-3.025-6.373-6.74c0-1.196,0-2.313,0-3.51
		c0-3.713,2.861-6.74,6.373-6.74c3.508,0,6.37,3.027,6.37,6.74C49.712,8.674,49.712,9.792,49.712,10.988L49.712,10.988z"/>
</g><g id="cap_02" display="inline">
	<path display="inline" fill="#fff353" d="M43.34,1.813c-3.001,0-5.442,2.508-5.442,5.592c0,3.083,2.441,5.592,5.442,5.592
		c3.003,0,5.444-2.509,5.444-5.592S46.343,1.813,43.34,1.813z M43.34,11.986c-2.459,0-4.461-2.056-4.461-4.581
		c0-2.526,2.002-4.582,4.461-4.582c2.46,0,4.462,2.056,4.462,4.582C47.802,9.933,45.8,11.986,43.34,11.986z"/>
	<path display="inline" fill="#fff353" d="M43.34,3.833c-1.916,0-3.476,1.603-3.476,3.572c0,1.97,1.56,3.571,3.476,3.571
		c1.918,0,3.476-1.602,3.476-3.571C46.816,5.436,45.258,3.833,43.34,3.833z M43.34,9.966c-1.374,0-2.492-1.148-2.492-2.561
		s1.118-2.56,2.492-2.56c1.375,0,2.493,1.147,2.493,2.56S44.715,9.966,43.34,9.966z"/>
</g><g id="body_outline">
	<g>
		<path fill="#020202" d="M19.313,12.775c0.31,0.14,0.633,0.261,0.967,0.361c0.156,0.047,0.307,0.104,0.45,0.167
			c0.145-0.064,0.295-0.121,0.451-0.167c0.335-0.103,0.658-0.223,0.968-0.361v-2.441c0-1.48,1.325-2.034,1.842-3.108
			c-0.873-0.605-2.014-0.972-3.261-0.972c-1.246,0-2.386,0.366-3.261,0.972c0.517,1.074,1.842,1.628,1.842,3.108L19.313,12.775
			L19.313,12.775z"/>
		<path fill="#676868" d="M19.125,21.022c0,9.102,0,18.204-0.004,27.303 M34.709,11.654l-0.824,1.807
			c-0.09,0.196-0.357,0.072-0.266-0.129l0.86-1.893l-8.687-3.2c-0.018,0.371-0.076,0.706-0.18,1.054
			c-0.064,0.217-0.337,0.114-0.278-0.096C25.441,8.82,25.5,8.428,25.5,8.025c-0.018-0.66-0.196-1.258-0.573-1.8
			c-0.23-0.331-0.513-0.615-0.813-0.854c0.131,0.283,0.205,0.609,0.205,0.957c0,0.921-0.515,1.477-1.036,2.041
			c-0.494,0.534-0.993,1.075-0.993,1.942v2.232c0.389-0.189,0.751-0.412,1.085-0.655c0.191-0.14,0.343,0.114,0.172,0.243
			c-0.673,0.509-1.442,0.884-2.321,1.145c-1.101,0.33-2.099,1.271-2.099,2.5c0,1.748,0,3.495,0,5.242c0,9.102,0,18.204-0.004,27.303
			c0.537,0.021,1.073,0.033,1.609,0.033c2.797,0,5.44-0.291,7.776-0.803c1.326-0.292,2.556-0.655,3.654-1.076l-1.216-27.183
			c-0.01-0.216,0.285-0.236,0.295-0.019l1.294,28.846l5.887,0.833l2.544-19.071c-0.493-4.067-0.913-6.988-1.797-9.731
			C38.302,17.47,36.984,14.942,34.709,11.654L34.709,11.654z M20.731,14.697c0.402,0,0.761,0.271,0.881,0.654
			c0.26,0.025,0.456,0.143,0.456,0.28c0,0.137-0.196,0.254-0.456,0.28c-0.12,0.384-0.479,0.653-0.881,0.653
			c-0.505,0-0.923-0.422-0.923-0.934S20.226,14.697,20.731,14.697L20.731,14.697z M20.731,14.999c-0.341,0-0.625,0.287-0.625,0.634
			c0,0.345,0.283,0.632,0.625,0.632c0.342,0,0.626-0.287,0.626-0.632C21.357,15.286,21.074,14.999,20.731,14.999L20.731,14.999z
			 M21.612,21.763c0.26,0.025,0.456,0.143,0.456,0.279c0,0.139-0.196,0.255-0.456,0.281c-0.12,0.385-0.479,0.653-0.881,0.653
			c-0.505,0-0.923-0.423-0.923-0.935s0.417-0.936,0.923-0.936C21.133,21.108,21.492,21.379,21.612,21.763L21.612,21.763z
			 M21.612,28.175c0.26,0.025,0.456,0.143,0.456,0.279c0,0.138-0.196,0.253-0.456,0.278c-0.12,0.387-0.479,0.654-0.881,0.654
			c-0.505,0-0.923-0.424-0.923-0.937c0-0.512,0.417-0.938,0.923-0.938C21.133,27.519,21.492,27.79,21.612,28.175L21.612,28.175z
			 M21.612,34.586c0.26,0.025,0.456,0.143,0.456,0.279c0,0.139-0.196,0.254-0.456,0.279c-0.12,0.384-0.479,0.653-0.881,0.653
			c-0.505,0-0.923-0.423-0.923-0.937c0-0.511,0.417-0.937,0.923-0.937C21.133,33.931,21.492,34.202,21.612,34.586L21.612,34.586z
			 M21.612,40.996c0.26,0.025,0.456,0.143,0.456,0.281c0,0.137-0.196,0.253-0.456,0.278c-0.12,0.385-0.479,0.652-0.881,0.652
			c-0.505,0-0.923-0.422-0.923-0.937c0-0.512,0.417-0.935,0.923-0.935C21.133,40.345,21.492,40.611,21.612,40.996L21.612,40.996z
			 M20.731,21.411c-0.341,0-0.625,0.287-0.625,0.632c0,0.347,0.283,0.633,0.625,0.633c0.342,0,0.626-0.286,0.626-0.633
			C21.357,21.698,21.074,21.411,20.731,21.411L20.731,21.411z M20.731,27.823c-0.341,0-0.625,0.285-0.625,0.633
			c0,0.345,0.283,0.632,0.625,0.632c0.342,0,0.626-0.287,0.626-0.632C21.358,28.108,21.074,27.823,20.731,27.823L20.731,27.823z
			 M20.731,34.233c-0.341,0-0.625,0.286-0.625,0.636c0,0.346,0.283,0.632,0.625,0.632c0.342,0,0.626-0.286,0.626-0.632
			C21.358,34.52,21.074,34.233,20.731,34.233L20.731,34.233z M20.731,40.645c-0.341,0-0.625,0.285-0.625,0.633
			c0,0.347,0.283,0.634,0.625,0.634c0.342,0,0.626-0.287,0.626-0.634C21.357,40.932,21.074,40.645,20.731,40.645L20.731,40.645z
			 M16.127,9.197c0.063,0.219-0.208,0.33-0.278,0.094c-0.104-0.349-0.162-0.68-0.18-1.052l-8.687,3.2l0.861,1.892
			c0.087,0.188-0.171,0.338-0.268,0.127l-0.823-1.803c-2.275,3.288-3.593,5.815-4.458,8.504c-0.884,2.742-1.303,5.661-1.797,9.729
			l2.544,19.073l5.888-0.833l1.294-28.837c0.01-0.228,0.303-0.211,0.293,0.013L9.3,46.481c1.101,0.421,2.328,0.784,3.654,1.076
			c1.797,0.395,3.777,0.654,5.87,0.756c0.004-9.097,0.003-18.193,0.003-27.29c0-1.748,0-3.494,0-5.242
			c0-1.051,0.665-1.956,1.542-2.458c-0.902-0.31-1.675-0.604-2.445-1.184c-0.172-0.13-0.011-0.379,0.167-0.248
			c0.333,0.246,0.695,0.466,1.084,0.656v-2.233c0-0.867-0.5-1.409-0.993-1.942c-0.521-0.563-1.036-1.12-1.036-2.041
			c0-0.347,0.075-0.674,0.205-0.957c-0.301,0.238-0.582,0.523-0.813,0.854c-0.385,0.546-0.576,1.167-0.576,1.8
			C15.961,8.429,16.019,8.822,16.127,9.197L16.127,9.197z M38.696,49.15c-0.012,0.074-0.096,0.139-0.168,0.129
			c-2.053-0.291-4.104-0.59-6.158-0.872c-0.061-0.008-0.126-0.082-0.129-0.143l-0.065-1.472c-1.091,0.412-2.302,0.771-3.604,1.058
			c-2.354,0.518-5.02,0.808-7.84,0.808c-2.569,0-5.349-0.261-7.838-0.808c-1.305-0.287-2.516-0.646-3.605-1.058l-0.066,1.472
			c-0.002,0.061-0.068,0.135-0.128,0.143l-6.157,0.872c-0.074,0.01-0.158-0.055-0.168-0.129L0.2,29.87
			c0.497-4.095,0.917-7.032,1.811-9.805c0.892-2.765,2.251-5.356,4.62-8.758l0.098-0.093c2.979-1.099,5.958-2.195,8.936-3.294
			c0.023-0.729,0.269-1.351,0.628-1.867c1.932-2.775,6.942-2.777,8.875,0c0.36,0.517,0.604,1.14,0.627,1.867l8.936,3.294l0.1,0.093
			c2.369,3.401,3.728,5.993,4.619,8.758c0.894,2.773,1.314,5.712,1.811,9.805C41.262,29.868,40.265,37.328,38.696,49.15
			L38.696,49.15z M23.266,4.839c-0.727-0.385-1.604-0.578-2.535-0.578c-0.931,0-1.809,0.192-2.534,0.578
			c-0.521,0.273-0.753,0.922-0.753,1.491c0,0.244,0.044,0.462,0.119,0.661c0.938-0.604,2.061-0.895,3.169-0.895
			c1.108,0,2.23,0.29,3.17,0.895c0.074-0.198,0.118-0.417,0.118-0.661C24.02,5.761,23.786,5.112,23.266,4.839L23.266,4.839z
			 M21.99,12.682l0.001-2.369c0-0.987,0.541-1.57,1.074-2.147c0.264-0.287,0.525-0.57,0.708-0.901
			c-0.897-0.587-1.977-0.867-3.042-0.867c-1.063,0-2.144,0.28-3.042,0.867c0.184,0.331,0.445,0.614,0.709,0.901
			c0.534,0.577,1.074,1.16,1.074,2.147v2.369c0.413,0.178,0.85,0.281,1.259,0.458C21.142,12.964,21.577,12.859,21.99,12.682
			L21.99,12.682z"/>
	</g>
</g><path id="cap_outline" fill="#676767" d="M49.862,10.988c0,3.606-2.8,6.89-6.521,6.89c-3.722,0-6.521-3.284-6.521-6.89v-3.51
	c0-3.606,2.801-6.89,6.521-6.89c3.723,0,6.521,3.284,6.521,6.89V10.988L49.862,10.988z M43.34,6.196c0.701,0,1.282,0.58,1.282,1.282
	c0,0.703-0.581,1.283-1.282,1.283c-0.7,0-1.282-0.58-1.282-1.283C42.058,6.776,42.638,6.196,43.34,6.196L43.34,6.196z M43.34,6.494
	c-0.537,0-0.98,0.446-0.98,0.982c0,0.539,0.443,0.983,0.98,0.983c0.538,0,0.983-0.445,0.983-0.983
	C44.323,6.94,43.878,6.494,43.34,6.494L43.34,6.494z M49.563,9.549c-0.82,2.733-3.296,4.818-6.223,4.818
	c-2.928,0-5.401-2.086-6.224-4.819v1.437c0,3.444,2.663,6.593,6.224,6.593c3.559,0,6.223-3.146,6.223-6.593V9.549L49.563,9.549z
	 M43.342,14.067c3.56,0,6.223-3.144,6.223-6.59c0-3.444-2.664-6.59-6.223-6.59c-3.56,0-6.223,3.146-6.223,6.59
	C37.12,10.923,39.78,14.067,43.342,14.067L43.342,14.067z"/>
</svg>